<svg width="257" height="259" viewBox="0 0 257 259" fill="none" xmlns="http://www.w3.org/2000/svg">
<circle cx="72" cy="100" r="50" fill="#FFE68E"/>
<circle cx="71.5" cy="100.5" r="34.5" stroke="#FFCD1E" stroke-width="10"/>
<path d="M72 57H74.5C98.5244 57 118 76.4756 118 100.5C118 124.524 98.5244 144 74.5 144H72V57Z" fill="#FFE68E"/>
<circle cx="50" cy="151" r="50" fill="#FFE68E"/>
<circle cx="49.5" cy="151.5" r="34.5" stroke="#FFCD1E" stroke-width="10"/>
<path d="M50 108H52.5C76.5244 108 96 127.476 96 151.5C96 175.524 76.5244 195 52.5 195H50V108Z" fill="#FFE68E"/>
<circle cx="50" cy="151" r="50" fill="#FFE68E"/>
<circle cx="49.5" cy="151.5" r="34.5" stroke="#FFCD1E" stroke-width="10"/>
<path d="M50 108H52.5C76.5244 108 96 127.476 96 151.5C96 175.524 76.5244 195 52.5 195H50V108Z" fill="#FFE68E"/>
<circle cx="158.439" cy="195.439" r="50" transform="rotate(71.2123 158.439 195.439)" fill="#FFE68E"/>
<circle cx="157.805" cy="195.127" r="34.5" transform="rotate(71.2123 157.805 195.127)" stroke="#FFCD1E" stroke-width="10"/>
<path d="M199.148 181.59L199.953 183.957C207.69 206.701 195.525 231.412 172.781 239.149C150.036 246.886 125.326 234.721 117.589 211.977L116.783 209.61L199.148 181.59Z" fill="#FFE68E"/>
<circle cx="107.439" cy="136.439" r="50" fill="#FFE68E"/>
<circle cx="106.939" cy="136.939" r="34.5" stroke="#FFCD1E" stroke-width="10"/>
<path d="M107.439 93.439H109.939C133.963 93.439 153.439 112.915 153.439 136.939C153.439 160.963 133.963 180.439 109.939 180.439H107.439V93.439Z" fill="#FFE68E"/>
<circle cx="193.439" cy="120.439" r="50" transform="rotate(71.2123 193.439 120.439)" fill="#FFE68E"/>
<circle cx="192.805" cy="120.127" r="34.5" transform="rotate(71.2123 192.805 120.127)" stroke="#FFCD1E" stroke-width="10"/>
<path d="M234.148 106.59L234.953 108.957C242.69 131.701 230.525 156.412 207.781 164.149C185.036 171.886 160.326 159.721 152.589 136.977L151.783 134.61L234.148 106.59Z" fill="#FFE68E"/>
<circle cx="142.439" cy="61.439" r="50" transform="rotate(104.122 142.439 61.439)" fill="#FFE68E"/>
<circle cx="142.076" cy="60.8321" r="34.5" transform="rotate(104.122 142.076 60.8321)" stroke="#FFCD1E" stroke-width="10"/>
<path d="M184.139 71.9305L183.53 74.3549C177.668 97.6533 154.029 111.788 130.731 105.927C107.432 100.065 93.2972 76.4264 99.1588 53.128L99.7688 50.7036L184.139 71.9305Z" fill="#FFE68E"/>
</svg>
