<svg width="58" height="123" viewBox="0 0 58 123" fill="none" xmlns="http://www.w3.org/2000/svg">
<path d="M56.3651 81.7635C56.2331 88.2475 54.4165 93.6303 50.9153 97.912C47.4159 102.108 41.9437 104.685 34.4986 105.643L34.1704 121.768L23.9326 121.56L24.2555 105.691C20.6757 105.448 16.9331 104.817 13.0277 103.798C9.20936 102.696 5.31435 101.166 1.34272 99.2075L4.99074 89.8078C9.4708 91.9474 13.4938 93.4802 17.0597 94.4063C20.7109 95.3341 24.3708 95.8354 28.0393 95.91C33.4142 96.0194 37.5755 94.9519 40.5231 92.7074C43.4724 90.3776 44.9931 86.9518 45.0852 82.4301C45.1616 78.6762 44.202 75.4987 42.2065 72.8976C40.2964 70.2982 37.0943 68.2699 32.6004 66.8128L22.297 63.5305C15.853 61.4363 11.1352 58.3956 8.14371 54.4086C5.15396 50.3363 3.71812 45.3994 3.8362 39.5979C3.91781 35.5881 4.71765 31.9342 6.23574 28.6364C7.75556 25.2533 10.1164 22.4848 13.3182 20.3308C16.6054 18.1786 20.8563 16.8995 26.0709 16.4935L26.3965 0.49686L36.6344 0.705228L36.3088 16.7019C39.2879 17.104 42.3463 17.8063 45.4838 18.809C48.6232 19.7264 51.7564 20.9425 54.8836 22.4571L51.105 31.9822C47.0463 30.1072 43.3611 28.7519 40.0494 27.9164C36.8248 26.9972 33.7194 26.5073 30.7334 26.4465C25.8704 26.3475 22.053 27.294 19.2812 29.286C16.5965 31.1945 15.2073 34.4522 15.1135 39.0592C15.0458 42.3866 15.8843 45.2202 17.629 47.5602C19.3755 49.8149 22.5375 51.7143 27.115 53.2584L37.4184 56.5407C50.3082 60.6439 56.6238 69.0515 56.3651 81.7635Z" fill="white"/>
</svg>
