<svg width="154" height="159" viewBox="0 0 154 159" fill="none" xmlns="http://www.w3.org/2000/svg">
<circle cx="68.3058" cy="75.0001" r="50" transform="rotate(-30.0141 68.3058 75.0001)" fill="#FFE68E"/>
<circle cx="68.1229" cy="75.6831" r="34.5" transform="rotate(-30.0141 68.1229 75.6831)" stroke="#FFCD1E" stroke-width="10"/>
<path d="M46.7966 37.7662L48.9614 36.5157C69.7641 24.4984 96.3701 31.6204 108.387 52.4232V52.4232C120.405 73.226 113.283 99.8319 92.4799 111.849L90.3151 113.1L46.7966 37.7662Z" fill="#FFE68E"/>
<path d="M122.098 115.264C120.016 121.407 116.661 125.991 112.031 129.017C107.429 131.962 101.434 132.769 94.0469 131.437L88.8704 146.711L79.1722 143.425L84.2665 128.393C80.9269 127.081 77.5489 125.35 74.1326 123.201C70.8244 120.999 67.5724 118.365 64.3765 115.3L70.6898 107.438C74.3158 110.83 77.6891 113.504 80.8096 115.463C84.0109 117.449 87.3491 119.031 90.8243 120.208C95.9159 121.934 100.205 122.171 103.693 120.92C107.207 119.589 109.691 116.781 111.142 112.498C112.347 108.942 112.391 105.623 111.273 102.541C110.236 99.4864 107.795 96.5868 103.949 93.842L95.116 87.6048C89.6037 83.6644 86.0228 79.3424 84.3732 74.6388C82.751 69.8543 82.8712 64.7142 84.7336 59.2186C86.0209 55.4201 87.8856 52.1777 90.3277 49.4914C92.7971 46.7243 95.8831 44.7968 99.5855 43.7089C103.369 42.6484 107.807 42.711 112.902 43.8969L118.037 28.7434L127.735 32.0301L122.6 47.1835C125.319 48.4654 128.023 50.0576 130.712 51.96C133.428 53.7815 136.049 55.886 138.574 58.2733L132.098 66.215C128.794 63.2032 125.689 60.7995 122.784 59.0039C119.986 57.155 117.174 55.7512 114.345 54.7926C109.738 53.2314 105.813 52.9824 102.57 54.0456C99.4343 55.0554 97.1272 57.7424 95.6482 62.1065C94.58 65.2585 94.5247 68.2131 95.4824 70.9703C96.4675 73.6468 98.9093 76.4115 102.808 79.2644L111.641 85.5016C122.693 93.3016 126.179 103.223 122.098 115.264Z" fill="white"/>
</svg>
