<svg width="192" height="183" viewBox="0 0 192 183" fill="none" xmlns="http://www.w3.org/2000/svg">
<circle cx="50" cy="120" r="50" fill="#FFE68E"/>
<circle cx="49.5" cy="120.5" r="34.5" stroke="#FFCD1E" stroke-width="10"/>
<path d="M50 77H52.5C76.5244 77 96 96.4756 96 120.5C96 144.524 76.5244 164 52.5 164H50V77Z" fill="#FFE68E"/>
<circle cx="89" cy="64" r="50" transform="rotate(-18.3204 89 64)" fill="#FFE68E"/>
<circle cx="88.6825" cy="64.6318" r="34.5" transform="rotate(-18.3204 88.6825 64.6318)" stroke="#FFCD1E" stroke-width="10"/>
<path d="M75.4838 23.1795L77.8571 22.3937C100.664 14.8421 125.274 27.2088 132.826 50.0155C140.377 72.8221 128.01 97.4324 105.204 104.984L102.831 105.77L75.4838 23.1795Z" fill="#FFE68E"/>
<circle cx="123" cy="114" r="50" transform="rotate(31.8813 123 114)" fill="#FFE68E"/>
<circle cx="122.311" cy="114.16" r="34.5" transform="rotate(31.8813 122.311 114.16)" stroke="#FFCD1E" stroke-width="10"/>
<path d="M145.711 77.4868L147.834 78.8072C168.234 91.4959 174.485 118.32 161.797 138.72C149.108 159.12 122.284 165.371 101.884 152.683L99.7609 151.362L145.711 77.4868Z" fill="#FFE68E"/>
<circle cx="123" cy="114" r="50" transform="rotate(31.8813 123 114)" fill="#FFE68E"/>
<circle cx="122.311" cy="114.16" r="34.5" transform="rotate(31.8813 122.311 114.16)" stroke="#FFCD1E" stroke-width="10"/>
<path d="M145.711 77.4868L147.834 78.8072C168.234 91.4959 174.485 118.32 161.797 138.72C149.108 159.12 122.284 165.371 101.884 152.683L99.7609 151.362L145.711 77.4868Z" fill="#FFE68E"/>
</svg>
